<svg width="668" height="668" viewBox="0 0 668 668" fill="none" xmlns="http://www.w3.org/2000/svg">
<path fill-rule="evenodd" clip-rule="evenodd" d="M175.668 13.5938C218.959 3.97317 271.476 0.666504 333.999 0.666504C396.523 0.666504 449.039 3.97317 492.329 13.5938C535.999 23.2988 572.293 39.8665 600.213 67.7858C628.133 95.7052 644.699 132.001 654.406 175.669C664.026 218.959 667.333 271.476 667.333 334C667.333 396.523 664.026 449.04 654.406 492.33C644.699 536 628.133 572.293 600.213 600.213C572.293 628.133 535.999 644.7 492.329 654.406C449.039 664.026 396.523 667.333 333.999 667.333C271.476 667.333 218.959 664.026 175.668 654.406C132 644.7 95.7047 628.133 67.7853 600.213C39.866 572.293 23.2983 536 13.5933 492.33C3.97268 449.04 0.666016 396.523 0.666016 334C0.666016 271.476 3.97268 218.959 13.5933 175.669C23.2983 132.001 39.866 95.7052 67.7853 67.7858C95.7047 39.8665 132 23.2988 175.668 13.5938ZM457.569 243.763C470.586 256.78 470.586 277.887 457.569 290.903L334.809 413.663C315.953 432.52 285.379 432.52 266.522 413.663L210.429 357.57C197.412 344.553 197.412 323.447 210.429 310.43C223.447 297.413 244.552 297.413 257.57 310.43L300.666 353.526L410.429 243.763C423.446 230.745 444.553 230.745 457.569 243.763Z" fill="#8DC2E2"/>
</svg>
